<svg xmlns="http://www.w3.org/2000/svg" width="256" height="256" viewBox="0 0 100 100"><rect width="100" height="100" rx="20" fill="#00809b"></rect><path d="M70.97 36.99Q70.97 44.82 65.62 50Q60.26 55.17 49.28 55.17L49.28 55.17L37.22 55.17L37.22 81.36L29.03 81.36L29.03 18.63L49.28 18.63Q59.90 18.63 65.44 23.77Q70.97 28.89 70.97 36.99L70.97 36.99ZM49.28 48.42Q56.12 48.42 59.36 45.45Q62.60 42.48 62.60 36.99L62.60 36.99Q62.60 25.38 49.28 25.38L49.28 25.38L37.22 25.38L37.22 48.42L49.28 48.42Z" fill="#fff"></path></svg>